<?xml version="1.0" encoding="UTF-8"?>
<svg xmlns="http://www.w3.org/2000/svg" xmlns:xlink="http://www.w3.org/1999/xlink" width="154.399994pt" height="38.400002pt" viewBox="0 0 154.399994 38.400002" version="1.1">
<g id="surface1">
<path style=" stroke:none;fill-rule:nonzero;fill:rgb(47%,47%,47%);fill-opacity:1;" d="M 4.800781 3.199219 L 149.601562 3.199219 C 150.488281 3.199219 151.199219 3.914062 151.199219 4.800781 L 151.199219 33.601562 C 151.199219 34.488281 150.488281 35.199219 149.601562 35.199219 L 4.800781 35.199219 C 3.914062 35.199219 3.199219 34.488281 3.199219 33.601562 L 3.199219 4.800781 C 3.199219 3.914062 3.914062 3.199219 4.800781 3.199219 Z M 4.800781 3.199219 "/>
<path style=" stroke:none;fill-rule:nonzero;fill:rgb(100%,100%,100%);fill-opacity:1;" d="M 21.601562 20.132812 L 22.988281 20.410156 C 22.898438 21.292969 22.578125 22.003906 22.027344 22.550781 C 21.472656 23.09375 20.761719 23.367188 19.886719 23.367188 C 18.894531 23.367188 18.082031 23.019531 17.449219 22.328125 C 16.820312 21.632812 16.503906 20.59375 16.503906 19.210938 C 16.503906 17.929688 16.835938 16.9375 17.496094 16.238281 C 18.15625 15.542969 18.949219 15.191406 19.875 15.191406 C 20.6875 15.191406 21.375 15.449219 21.9375 15.960938 C 22.496094 16.46875 22.824219 17.144531 22.921875 17.980469 L 21.554688 18.195312 C 21.359375 17.007812 20.804688 16.414062 19.886719 16.414062 C 19.3125 16.414062 18.832031 16.644531 18.445312 17.105469 C 18.0625 17.570312 17.871094 18.28125 17.871094 19.234375 C 17.871094 20.214844 18.058594 20.941406 18.4375 21.425781 C 18.8125 21.90625 19.296875 22.148438 19.886719 22.148438 C 20.863281 22.148438 21.4375 21.476562 21.601562 20.132812 Z M 26.816406 22.214844 C 27.253906 22.214844 27.613281 22.039062 27.882812 21.695312 C 28.15625 21.347656 28.292969 20.859375 28.292969 20.230469 C 28.292969 19.605469 28.15625 19.117188 27.882812 18.769531 C 27.613281 18.421875 27.253906 18.25 26.816406 18.25 C 26.367188 18.25 26.007812 18.421875 25.734375 18.765625 C 25.460938 19.109375 25.324219 19.597656 25.324219 20.230469 C 25.324219 20.875 25.460938 21.363281 25.734375 21.703125 C 26.007812 22.042969 26.367188 22.214844 26.816406 22.214844 Z M 26.816406 23.367188 C 26.015625 23.367188 25.355469 23.089844 24.839844 22.539062 C 24.320312 21.988281 24.058594 21.21875 24.058594 20.230469 C 24.058594 19.261719 24.328125 18.496094 24.859375 17.9375 C 25.394531 17.375 26.046875 17.097656 26.816406 17.097656 C 27.585938 17.097656 28.230469 17.375 28.757812 17.9375 C 29.285156 18.496094 29.546875 19.261719 29.546875 20.230469 C 29.546875 21.21875 29.292969 21.988281 28.78125 22.539062 C 28.269531 23.089844 27.613281 23.367188 26.816406 23.367188 Z M 31.011719 23.199219 L 31.011719 17.265625 L 32.242188 17.265625 L 32.242188 17.835938 L 32.265625 17.835938 C 32.429688 17.625 32.65625 17.449219 32.949219 17.308594 C 33.238281 17.167969 33.546875 17.097656 33.867188 17.097656 C 34.523438 17.097656 35.039062 17.292969 35.417969 17.683594 C 35.796875 18.074219 35.984375 18.621094 35.984375 19.3125 L 35.984375 23.199219 L 34.71875 23.199219 L 34.71875 19.648438 C 34.71875 18.730469 34.332031 18.273438 33.5625 18.273438 C 33.175781 18.273438 32.867188 18.382812 32.636719 18.609375 C 32.402344 18.832031 32.289062 19.132812 32.289062 19.515625 L 32.289062 23.199219 Z M 37.78125 23.199219 L 37.78125 17.265625 L 39.015625 17.265625 L 39.015625 17.835938 L 39.035156 17.835938 C 39.203125 17.625 39.429688 17.449219 39.71875 17.308594 C 40.011719 17.167969 40.316406 17.097656 40.636719 17.097656 C 41.296875 17.097656 41.8125 17.292969 42.191406 17.683594 C 42.566406 18.074219 42.753906 18.621094 42.753906 19.3125 L 42.753906 23.199219 L 41.488281 23.199219 L 41.488281 19.648438 C 41.488281 18.730469 41.105469 18.273438 40.335938 18.273438 C 39.949219 18.273438 39.636719 18.382812 39.40625 18.609375 C 39.175781 18.832031 39.058594 19.132812 39.058594 19.515625 L 39.058594 23.199219 Z M 48.496094 21.230469 L 49.414062 21.980469 C 48.839844 22.90625 48.019531 23.367188 46.953125 23.367188 C 46.128906 23.367188 45.460938 23.082031 44.941406 22.511719 C 44.421875 21.941406 44.164062 21.179688 44.164062 20.230469 C 44.164062 19.285156 44.421875 18.523438 44.933594 17.953125 C 45.449219 17.382812 46.105469 17.097656 46.894531 17.097656 C 47.6875 17.097656 48.335938 17.378906 48.839844 17.945312 C 49.34375 18.515625 49.59375 19.277344 49.59375 20.230469 L 49.59375 20.613281 L 45.449219 20.613281 C 45.464844 21.105469 45.601562 21.5 45.859375 21.792969 C 46.117188 22.089844 46.472656 22.238281 46.929688 22.238281 C 47.144531 22.238281 47.339844 22.207031 47.511719 22.148438 C 47.683594 22.085938 47.835938 21.996094 47.964844 21.878906 C 48.09375 21.757812 48.195312 21.65625 48.261719 21.566406 C 48.328125 21.476562 48.40625 21.363281 48.496094 21.230469 Z M 45.460938 19.648438 L 48.351562 19.648438 C 48.328125 19.230469 48.195312 18.890625 47.949219 18.625 C 47.703125 18.359375 47.351562 18.226562 46.894531 18.226562 C 46.46875 18.226562 46.128906 18.367188 45.875 18.652344 C 45.621094 18.9375 45.484375 19.269531 45.460938 19.648438 Z M 54.664062 20.835938 L 55.929688 21.105469 C 55.808594 21.824219 55.539062 22.378906 55.113281 22.773438 C 54.6875 23.171875 54.121094 23.367188 53.421875 23.367188 C 52.613281 23.367188 51.953125 23.089844 51.4375 22.539062 C 50.921875 21.988281 50.664062 21.21875 50.664062 20.230469 C 50.664062 19.285156 50.925781 18.523438 51.445312 17.953125 C 51.960938 17.382812 52.617188 17.097656 53.410156 17.097656 C 54.089844 17.097656 54.648438 17.300781 55.089844 17.707031 C 55.53125 18.113281 55.789062 18.640625 55.863281 19.292969 L 54.664062 19.492188 C 54.535156 18.664062 54.121094 18.25 53.421875 18.25 C 52.964844 18.25 52.601562 18.421875 52.335938 18.769531 C 52.066406 19.117188 51.929688 19.605469 51.929688 20.230469 C 51.929688 20.859375 52.0625 21.347656 52.324219 21.695312 C 52.585938 22.039062 52.949219 22.214844 53.421875 22.214844 C 54.113281 22.214844 54.53125 21.753906 54.664062 20.835938 Z M 57.617188 21.21875 L 57.617188 18.363281 L 56.71875 18.363281 L 56.71875 17.265625 L 57.648438 17.265625 L 57.648438 15.808594 L 58.859375 15.808594 L 58.859375 17.265625 L 60.347656 17.265625 L 60.347656 18.363281 L 58.871094 18.363281 L 58.871094 21.082031 C 58.871094 21.410156 58.921875 21.640625 59.023438 21.773438 C 59.121094 21.902344 59.328125 21.96875 59.644531 21.96875 L 60.113281 21.96875 L 60.113281 23.199219 L 59.542969 23.199219 C 58.824219 23.199219 58.324219 23.042969 58.042969 22.722656 C 57.757812 22.40625 57.617188 21.90625 57.617188 21.21875 Z M 65.59375 23.199219 L 64.28125 17.265625 L 65.539062 17.265625 L 66.378906 21.398438 L 66.398438 21.398438 L 67.8125 17.265625 L 68.964844 17.265625 L 70.285156 21.386719 L 70.308594 21.386719 L 71.261719 17.265625 L 72.492188 17.265625 L 71.070312 23.199219 L 69.839844 23.199219 L 68.394531 18.742188 L 68.371094 18.742188 L 66.8125 23.199219 Z M 73.921875 23.199219 L 73.921875 17.265625 L 75.199219 17.265625 L 75.199219 23.199219 Z M 73.898438 16.289062 L 73.898438 15.023438 L 75.222656 15.023438 L 75.222656 16.289062 Z M 77.355469 21.21875 L 77.355469 18.363281 L 76.460938 18.363281 L 76.460938 17.265625 L 77.390625 17.265625 L 77.390625 15.808594 L 78.597656 15.808594 L 78.597656 17.265625 L 80.089844 17.265625 L 80.089844 18.363281 L 78.609375 18.363281 L 78.609375 21.082031 C 78.609375 21.410156 78.660156 21.640625 78.761719 21.773438 C 78.863281 21.902344 79.070312 21.96875 79.382812 21.96875 L 79.855469 21.96875 L 79.855469 23.199219 L 79.28125 23.199219 C 78.566406 23.199219 78.066406 23.042969 77.78125 22.722656 C 77.5 22.40625 77.355469 21.90625 77.355469 21.21875 Z M 81.496094 23.199219 L 81.496094 15.023438 L 82.773438 15.023438 L 82.773438 17.847656 L 82.796875 17.847656 C 82.929688 17.644531 83.148438 17.46875 83.457031 17.320312 C 83.761719 17.171875 84.070312 17.097656 84.386719 17.097656 C 85.019531 17.097656 85.535156 17.289062 85.929688 17.679688 C 86.328125 18.066406 86.523438 18.597656 86.523438 19.269531 L 86.523438 23.199219 L 85.257812 23.199219 L 85.257812 19.570312 C 85.257812 19.183594 85.15625 18.871094 84.945312 18.628906 C 84.738281 18.390625 84.433594 18.273438 84.039062 18.273438 C 83.65625 18.273438 83.351562 18.382812 83.121094 18.609375 C 82.890625 18.832031 82.773438 19.121094 82.773438 19.46875 L 82.773438 23.199219 Z M 81.496094 23.199219 "/>
<path style=" stroke:none;fill-rule:nonzero;fill:rgb(100%,100%,100%);fill-opacity:1;" d="M 128.011719 14.980469 L 126.058594 18.953125 L 124.105469 14.980469 L 121.230469 14.980469 L 126.058594 24.800781 L 130.882812 14.980469 Z M 112.132812 18.449219 C 112.132812 18.152344 112.03125 17.929688 111.824219 17.785156 C 111.621094 17.640625 111.34375 17.566406 110.992188 17.566406 L 109.6875 17.566406 L 109.6875 19.375 L 110.980469 19.375 C 111.339844 19.375 111.621094 19.296875 111.824219 19.136719 C 112.03125 18.980469 112.132812 18.757812 112.132812 18.476562 Z M 119.339844 14.398438 L 124.167969 24.21875 L 121.292969 24.21875 L 119.339844 20.246094 L 117.386719 24.21875 L 112.019531 24.21875 L 110.328125 21.582031 L 109.6875 21.582031 L 109.6875 24.21875 L 106.6875 24.21875 L 106.6875 14.980469 L 111.070312 14.980469 C 111.875 14.980469 112.53125 15.074219 113.050781 15.261719 C 113.566406 15.453125 113.980469 15.710938 114.296875 16.035156 C 114.570312 16.316406 114.777344 16.632812 114.914062 16.984375 C 115.050781 17.335938 115.117188 17.753906 115.117188 18.226562 L 115.117188 18.253906 C 115.117188 18.929688 114.960938 19.503906 114.644531 19.96875 C 114.328125 20.4375 113.898438 20.808594 113.351562 21.078125 L 114.910156 23.421875 Z M 132.773438 14.398438 L 127.949219 24.21875 L 130.820312 24.21875 L 132.773438 20.246094 L 134.726562 24.21875 L 137.601562 24.21875 Z M 97.988281 17.59375 L 100.628906 17.59375 L 100.628906 24.21875 L 103.628906 24.21875 L 103.628906 17.59375 L 106.265625 17.59375 L 106.265625 14.980469 L 97.988281 14.980469 Z M 97.882812 20.046875 C 98.066406 20.375 98.15625 20.769531 98.15625 21.238281 L 98.15625 21.261719 C 98.15625 21.746094 98.0625 22.183594 97.875 22.570312 C 97.6875 22.957031 97.421875 23.285156 97.082031 23.554688 C 96.738281 23.824219 96.324219 24.027344 95.839844 24.175781 C 95.351562 24.320312 94.804688 24.394531 94.199219 24.394531 C 93.285156 24.394531 92.433594 24.261719 91.644531 24.003906 C 90.851562 23.742188 90.171875 23.355469 89.601562 22.835938 L 91.199219 20.871094 C 91.6875 21.253906 92.199219 21.535156 92.738281 21.699219 C 93.277344 21.867188 93.808594 21.953125 94.339844 21.953125 C 94.613281 21.953125 94.808594 21.914062 94.929688 21.847656 C 95.050781 21.777344 95.109375 21.679688 95.109375 21.554688 L 95.109375 21.53125 C 95.109375 21.394531 95.019531 21.285156 94.84375 21.199219 C 94.671875 21.109375 94.34375 21.019531 93.863281 20.921875 C 93.363281 20.816406 92.878906 20.691406 92.425781 20.550781 C 91.96875 20.410156 91.566406 20.230469 91.21875 20.011719 C 90.875 19.789062 90.597656 19.511719 90.394531 19.179688 C 90.1875 18.84375 90.085938 18.433594 90.085938 17.949219 L 90.085938 17.921875 C 90.085938 17.484375 90.167969 17.074219 90.335938 16.695312 C 90.5 16.316406 90.746094 15.984375 91.066406 15.707031 C 91.386719 15.421875 91.785156 15.203125 92.257812 15.042969 C 92.730469 14.886719 93.277344 14.808594 93.890625 14.808594 C 94.761719 14.808594 95.523438 14.914062 96.175781 15.125 C 96.832031 15.335938 97.417969 15.652344 97.9375 16.074219 L 96.480469 18.160156 C 96.050781 17.84375 95.601562 17.613281 95.128906 17.464844 C 94.652344 17.320312 94.207031 17.25 93.789062 17.25 C 93.566406 17.25 93.402344 17.285156 93.296875 17.355469 C 93.1875 17.425781 93.136719 17.515625 93.136719 17.632812 L 93.136719 17.65625 C 93.136719 17.78125 93.214844 17.886719 93.378906 17.976562 C 93.542969 18.0625 93.855469 18.15625 94.328125 18.253906 C 94.898438 18.359375 95.417969 18.484375 95.890625 18.632812 C 96.359375 18.785156 96.765625 18.976562 97.101562 19.210938 C 97.4375 19.445312 97.699219 19.722656 97.882812 20.046875 Z M 97.882812 20.046875 "/>
</g>
</svg>
